<?xml version="1.0" encoding="UTF-8"?>
<svg width="489px" height="215px" viewBox="0 0 489 215" version="1.1" xmlns="http://www.w3.org/2000/svg" xmlns:xlink="http://www.w3.org/1999/xlink">
    <!-- Generator: sketchtool 52.2 (67145) - http://www.bohemiancoding.com/sketch -->
    <title>42C26340-E800-4E9B-B1F7-F7A970AD2128</title>
    <desc>Created with sketchtool.</desc>
    <defs>
        <polygon id="path-1" points="0.9101 0.1 486.3901 0.1 486.3901 207.386659 0.9101 207.386659"></polygon>
        <polygon id="path-3" points="0 0.287623388 489.1598 0.287623388 489.1598 2.9999 0 2.9999"></polygon>
    </defs>
    <g id="Page-1" stroke="none" stroke-width="1" fill="none" fill-rule="evenodd">
        <g id="option-1-copy-2" transform="translate(-1427.000000, -15646.000000)">
            <g id="Group-7" transform="translate(1427.000000, 15645.000000)">
                <g id="Group-3" transform="translate(1.000000, 0.900000)">
                    <mask id="mask-2" fill="white">
                        <use xlink:href="#path-1"></use>
                    </mask>
                    <g id="Clip-2"></g>
                    <path d="M28.1201,181.0996 C28.2801,184.5796 23.9601,187.9696 20.6201,186.2996 C17.3001,185.0996 16.3001,181.2096 16.2001,178.0596 C16.2101,164.0096 15.9501,149.9596 16.0601,135.9196 C15.7201,132.9596 17.8101,130.7006 19.2701,128.3796 C22.2101,128.4006 25.1401,128.3606 28.0701,128.3706 C28.5301,145.9406 27.7301,163.5196 28.1201,181.0996 M214.5901,206.7306 C232.2301,208.5306 249.9301,205.3496 267.5801,207.2496 C279.2501,207.2696 290.9401,207.6906 302.5801,206.6796 C316.5701,206.9406 330.6201,206.0896 344.5801,207.2896 C357.2101,206.5496 369.9501,208.2306 382.5801,206.7196 C390.5701,207.0396 398.5701,207.7406 406.5801,207.1506 C419.5701,205.6796 432.5601,207.8796 445.5801,207.2806 C457.2701,207.8396 468.9401,205.8606 480.6101,207.1506 C482.5601,207.2806 484.4701,206.7306 486.3901,206.4406 C486.2601,204.1396 486.3601,201.7306 485.0401,199.7306 C483.1601,196.8796 484.2901,193.3296 483.7101,190.1696 C482.2601,188.4196 479.8701,187.8606 478.1101,186.4996 C477.7101,182.8606 478.6401,179.0306 477.1401,175.5596 C475.1101,170.9506 476.2301,165.8096 476.0201,160.9406 C473.7001,159.9006 470.4201,159.1906 470.3201,156.0596 C469.9301,147.7496 470.5201,139.4196 470.0991,131.1106 C469.7201,128.4596 469.3701,125.2806 466.9201,123.6696 C461.6901,120.0396 454.7501,119.8606 448.7701,121.2896 C443.5901,122.5306 441.0201,128.0196 441.0301,132.9596 C441.0101,141.4006 441.0601,149.8296 441.0301,158.2696 C439.3401,159.3606 437.3201,160.1906 436.3001,162.0306 C435.9801,165.2806 436.7101,168.7196 435.2401,171.7806 C433.1201,176.2006 434.5201,181.2096 433.8201,185.8896 C432.4901,187.8706 429.9501,188.3096 427.9501,189.3296 C428.0301,192.8706 428.1101,196.4696 427.0501,199.9006 C426.2801,199.6796 424.7401,199.2406 423.9701,199.0196 C424.0201,192.0396 424.1101,185.0596 423.9201,178.0796 C422.2001,175.4696 419.8901,173.2096 417.4501,171.2696 C414.9501,170.4406 412.4201,169.7196 409.9001,168.9596 C409.5601,161.5996 407.7101,154.3706 407.9901,146.9696 C407.8201,140.3606 409.7701,133.9806 411.3201,127.6206 C407.4201,124.0706 406.1501,118.6606 402.6101,114.8896 C400.6201,119.2196 398.6401,123.5596 396.1301,127.6296 C394.6401,131.7196 396.8401,135.9996 397.3101,140.0996 C398.4501,149.7006 397.0201,159.3606 396.5501,168.9596 C393.6501,169.8296 390.7601,171.2006 387.6701,171.0596 C385.0401,170.5706 381.9501,169.5096 380.7701,166.8796 C379.2201,162.3296 380.4101,157.2596 378.6901,152.7696 C375.9001,148.9296 371.0201,147.5796 366.9001,145.6606 C360.9001,143.2696 354.8401,140.4696 348.2801,140.2806 C339.0401,139.9196 330.4001,143.8296 322.1801,147.5706 C319.2601,149.1206 315.8701,150.5196 314.1501,153.4996 C312.7101,157.9596 313.9801,162.9696 311.9801,167.2896 C309.1901,171.0196 303.8601,171.7896 299.8701,169.5596 L299.1301,169.2596 C297.5901,165.9406 297.4201,162.2196 296.8601,158.6696 C295.7001,150.9806 295.1201,142.9106 297.7201,135.4406 C298.3301,132.5496 300.2401,129.2006 298.1701,126.4806 C295.6801,122.4406 293.3101,118.3296 290.8601,114.2696 C289.2101,119.2806 286.3201,123.6796 283.6201,128.1396 C283.5601,132.8396 285.9001,137.2496 286.0501,141.9596 C286.5401,150.7696 285.6701,159.5896 284.8201,168.3396 C284.4201,168.4596 283.6301,168.7096 283.2301,168.8296 C280.8701,169.5496 278.1901,169.9196 276.4101,171.7896 C274.4001,173.8706 272.5001,176.0596 270.2201,177.8496 C270.0101,184.6206 270.3701,191.4006 270.0901,198.1606 C269.1101,200.8896 264.9101,199.7896 265.2001,196.9996 C264.9901,179.3296 265.3601,161.6606 265.2501,143.9996 C265.0991,139.6506 265.9701,135.3496 265.9301,131.0096 C265.9501,97.9806 266.0991,64.9506 266.0801,31.9196 C266.3101,29.3596 264.7601,27.2406 263.4001,25.2406 C259.1601,19.2296 254.5301,13.4506 249.0991,8.4696 C243.7001,3.5496 236.9101,-1.1604 229.1801,0.4906 C228.7501,0.3996 227.8901,0.2006 227.4601,0.0996 C226.6701,1.3096 225.8901,2.5296 225.1201,3.7496 C224.9601,3.5996 224.6401,3.2896 224.4801,3.1296 C221.5201,15.1806 217.6301,27.0096 215.0501,39.1696 C210.7401,59.1496 207.3501,79.4906 207.7601,99.9996 C207.8801,109.6606 207.3301,119.3796 208.7801,128.9696 C208.8801,145.7596 211.6301,162.3606 213.6601,178.9906 C214.4001,185.8396 216.3801,192.5496 216.2301,199.4906 C211.9301,199.5896 207.6101,199.6796 203.3301,199.2596 C204.5701,195.8396 207.6201,192.9296 207.2501,189.0596 C206.8701,182.2996 209.0801,174.9696 206.5101,168.6106 C203.0001,168.3496 199.4801,168.4996 195.9701,168.4996 C195.8101,125.9906 195.9401,83.4796 195.9001,40.9696 C195.9101,39.0896 195.4401,37.2696 195.0401,35.4506 C190.2701,35.7096 185.4501,35.2096 180.7001,35.7996 C178.1501,37.4596 176.8501,40.2796 175.1601,42.6896 C170.2801,42.7896 165.4001,42.5896 160.5201,42.7006 C160.1901,43.0096 159.5401,43.6296 159.2201,43.9396 C159.1401,84.8296 159.0501,125.7306 159.2701,166.6206 C156.0301,166.7096 152.7901,166.6206 149.5601,166.7496 C149.0401,174.1796 149.3101,181.6396 149.3101,189.0896 C149.0901,192.9296 153.2801,194.7196 154.3801,198.0796 C152.0501,200.7596 148.1101,199.1696 145.0101,199.3396 C144.8301,185.5396 145.0601,171.7306 144.9501,157.9296 C145.2301,155.2806 142.7401,153.6906 141.2401,151.9006 C141.1901,146.9106 141.0901,141.9106 141.2001,136.9196 C141.1301,132.9006 145.2301,130.1506 144.9901,126.0896 C145.0401,108.0396 144.9101,89.9996 145.0101,71.9596 C145.2801,67.9306 142.5401,64.6896 141.4301,61.0096 C140.7401,55.8996 141.7501,50.6696 140.8801,45.5796 C138.1501,39.2696 131.8301,33.6606 124.5801,34.2696 C121.5901,34.2696 118.5701,34.1296 115.6201,34.6806 C111.4801,35.7696 107.8501,38.2596 104.7801,41.1806 C103.2601,42.7006 101.8101,44.6406 102.0301,46.9196 C101.9101,56.0396 102.0901,65.1806 101.9601,74.3096 C99.7001,76.2596 95.2701,77.2996 95.9201,81.0296 C96.0101,117.6906 95.9701,154.3496 95.9301,191.0096 C95.9701,193.9406 95.3901,196.8206 94.9301,199.7006 C94.1601,199.5796 92.6301,199.3206 91.8601,199.2006 C91.7301,195.0396 92.7401,190.5996 90.7801,186.7306 C89.8301,184.6696 88.3301,182.9296 87.2901,180.9296 C86.7401,177.7806 87.0501,174.5706 87.0901,171.4006 C84.4601,170.9406 81.8001,170.5896 79.1201,170.4596 C77.2901,161.9596 78.6101,153.2496 78.1601,144.6506 C75.7301,144.5306 73.2901,144.6906 70.9501,145.4106 C71.1501,152.5996 70.8001,159.8096 71.1001,166.9996 C71.4901,171.9106 73.8501,177.5596 70.5001,181.9596 C67.8601,185.1796 63.4001,184.6606 59.7201,184.2696 C58.5301,181.9996 56.9001,179.7406 56.9801,177.0596 C56.8601,171.7096 56.9401,166.3606 56.9601,161.0096 C54.7201,160.5996 52.4401,160.4996 50.1601,160.4196 C47.9801,167.2196 49.9501,174.4806 49.0601,181.4506 C46.3101,186.6206 38.6401,187.2096 35.0201,182.6906 C35.2901,173.7996 35.0601,164.8896 34.9401,155.9906 C34.0401,146.4196 33.3601,136.6506 35.0901,127.1396 C33.9501,124.9806 32.3901,123.0796 30.9601,121.1106 C29.7801,121.2006 28.6001,121.2696 27.4201,121.3396 C22.7401,121.6106 18.1401,122.5596 13.4701,122.9596 C12.0001,125.3296 11.0201,127.9806 9.2901,130.1906 C9.9601,132.3896 10.2801,134.6796 10.1901,136.9806 C10.0301,151.0096 9.8601,165.0396 10.0601,179.0596 C10.4901,183.3496 6.4201,185.9996 5.2401,189.7996 C4.1501,192.8296 4.1601,196.0706 4.0201,199.2496 C3.0001,199.6396 1.9801,200.0496 0.9601,200.4696 C0.9401,202.5306 0.9501,204.5896 0.9101,206.6506 C72.1401,206.7696 143.3601,206.6396 214.5901,206.7306" id="Fill-1" fill="#705431" mask="url(#mask-2)"></path>
                </g>
                <g id="Group-6" transform="translate(0.000000, 212.900000)">
                    <mask id="mask-4" fill="white">
                        <use xlink:href="#path-3"></use>
                    </mask>
                    <g id="Clip-5"></g>
                    <path d="M482.5898,0.4199 C327.5998,0.4199 172.5798,0.4299 17.5798,0.4299 C11.6498,0.5599 5.1298,-0.8301 -0.0002,2.9999 L489.1598,2.9999 C487.0208,2.0299 485.0098,0.5199 482.5898,0.4199" id="Fill-4" fill="#B9B9B9" mask="url(#mask-4)"></path>
                </g>
            </g>
        </g>
    </g>
</svg>